<?xml version="1.0" encoding="UTF-8" ?>
<!DOCTYPE svg PUBLIC "-//W3C//DTD SVG 1.1//EN" "http://www.w3.org/Graphics/SVG/1.1/DTD/svg11.dtd">
<svg width="200pt" height="200pt" viewBox="0 0 200 200" version="1.1" xmlns="http://www.w3.org/2000/svg">
<g id="#000000ff">
<path fill="#000000" opacity="1.00" d=" M 49.86 14.65 C 59.60 8.41 72.29 7.91 82.84 12.36 C 88.28 14.73 93.81 17.00 98.87 20.13 C 102.35 22.23 100.93 26.74 100.22 29.95 C 97.07 41.19 90.35 51.03 83.03 59.96 C 84.55 64.40 85.06 69.09 84.91 73.77 C 91.48 70.55 98.37 66.75 106.02 67.16 C 113.58 66.78 120.89 71.34 124.29 78.03 C 125.51 80.50 122.52 83.09 124.27 85.46 C 125.94 88.82 127.41 92.75 125.26 96.26 C 127.04 99.90 130.27 103.15 133.25 106.03 C 133.75 102.27 131.55 98.81 131.66 95.05 C 130.90 82.48 139.41 69.89 151.63 66.45 C 162.36 63.08 174.82 67.58 181.17 76.81 C 187.30 85.15 188.67 96.34 185.65 106.15 C 192.99 113.99 195.29 125.48 193.45 135.86 C 189.99 155.41 174.36 172.21 155.02 176.87 C 152.45 177.53 149.60 177.64 147.49 179.43 C 137.42 187.20 124.94 192.58 112.03 192.03 C 105.95 192.29 100.08 190.36 94.03 190.29 C 84.07 189.30 73.72 186.68 65.95 180.05 C 60.10 175.15 57.19 167.61 56.40 160.18 C 56.31 156.05 56.34 151.92 56.47 147.79 C 57.02 144.09 58.03 140.43 57.75 136.65 C 52.55 134.97 47.19 131.93 45.18 126.54 C 42.81 119.55 45.45 111.73 50.70 106.76 C 46.27 106.43 40.74 108.19 37.33 104.50 C 33.90 100.49 32.54 95.26 30.67 90.44 C 30.35 89.51 29.78 88.76 28.98 88.19 C 22.89 83.26 17.51 77.54 11.92 72.07 C 9.24 69.07 4.91 65.74 6.27 61.19 C 8.19 56.68 13.76 56.10 18.04 56.27 C 26.06 55.87 33.65 58.83 41.49 59.86 C 47.82 53.89 54.72 47.06 63.84 46.21 C 64.15 37.57 56.05 31.82 48.73 29.27 C 45.61 28.39 41.30 27.00 41.70 22.92 C 42.99 19.08 46.70 16.84 49.86 14.65 M 54.67 17.03 L 55.46 17.51 C 52.34 17.23 49.76 20.48 47.52 22.45 C 46.99 22.69 46.44 22.92 45.89 23.13 C 51.88 25.61 58.08 28.02 62.79 32.68 L 63.04 32.69 C 67.32 37.61 69.68 44.16 68.20 50.67 C 60.70 49.47 54.40 54.46 49.04 58.98 C 46.50 60.92 44.76 63.86 41.80 65.22 C 37.58 63.86 33.27 62.74 28.87 62.16 L 28.22 61.68 C 26.57 61.53 24.93 61.37 23.29 61.22 L 23.21 60.65 C 19.91 60.60 16.51 60.10 13.27 60.95 C 12.02 61.37 9.50 62.16 10.79 63.93 C 14.29 69.04 19.17 73.03 23.55 77.36 C 27.04 80.53 30.71 83.51 34.17 86.71 C 36.07 91.44 37.37 96.49 40.18 100.80 C 40.94 102.11 42.53 102.40 43.91 102.44 C 52.43 102.91 60.86 100.52 69.38 101.79 C 69.31 102.58 69.17 104.17 69.10 104.97 C 68.42 106.46 67.95 108.04 67.43 109.60 C 63.95 109.86 60.66 107.85 57.17 108.66 C 51.55 110.29 48.72 116.58 48.71 122.04 C 49.46 128.62 56.41 132.43 62.49 132.68 C 62.42 136.41 62.78 140.20 61.83 143.85 C 59.35 153.59 60.07 164.74 65.76 173.25 C 72.28 181.36 83.05 184.48 93.01 185.63 C 97.81 185.82 102.45 187.41 107.26 187.33 C 112.89 187.88 118.62 187.65 124.11 186.20 C 133.01 184.08 140.75 178.95 147.90 173.43 C 150.42 173.31 152.88 172.74 155.34 172.20 L 155.98 171.69 C 156.52 171.58 157.61 171.38 158.15 171.28 C 174.41 165.37 187.09 150.28 189.26 133.01 C 190.28 123.90 187.88 113.76 180.62 107.67 C 183.60 99.36 183.79 89.74 179.21 81.96 C 174.99 74.08 166.05 68.76 157.03 69.76 C 149.24 70.55 142.26 75.69 138.69 82.58 C 135.76 88.15 135.43 94.83 137.04 100.85 C 137.55 102.07 137.53 103.86 139.06 104.32 C 137.12 107.38 135.22 110.48 133.31 113.57 C 126.29 106.51 121.28 97.44 113.31 91.35 C 115.90 89.50 119.12 92.03 122.02 92.00 C 120.57 86.19 116.55 81.64 111.68 78.37 C 114.49 78.43 117.26 78.91 120.00 79.49 C 117.79 76.36 114.95 73.33 111.10 72.38 C 103.48 70.22 95.53 73.14 89.00 77.03 C 85.19 79.18 82.41 82.78 78.46 84.70 C 81.21 78.18 80.90 70.75 79.43 63.95 C 79.09 61.72 77.00 59.06 79.23 57.21 C 84.89 50.75 89.76 43.57 93.46 35.81 C 94.51 33.09 95.50 30.34 96.27 27.52 C 96.36 26.62 96.55 24.82 96.65 23.92 C 94.82 22.96 92.98 22.01 91.11 21.15 C 85.24 18.44 79.46 15.11 72.93 14.35 C 66.76 13.23 60.32 14.43 54.67 17.03 Z" />
</g>
<g id="#ffb700ff">
<path fill="#ffb700" opacity="1.00" d=" M 54.67 17.03 C 60.32 14.43 66.76 13.23 72.93 14.35 C 79.46 15.11 85.24 18.44 91.11 21.15 C 87.26 23.12 83.12 21.48 79.17 20.87 C 73.14 19.94 67.05 19.52 60.96 19.14 C 59.01 19.08 57.18 18.38 55.46 17.51 L 54.67 17.03 Z" />
</g>
<g id="#ff9616ff">
<path fill="#ff9616" opacity="1.00" d=" M 55.46 17.51 C 57.18 18.38 59.01 19.08 60.96 19.14 C 67.05 19.52 73.14 19.94 79.17 20.87 C 83.12 21.48 87.26 23.12 91.11 21.15 C 92.98 22.01 94.82 22.96 96.65 23.92 C 96.55 24.82 96.36 26.62 96.27 27.52 C 92.74 27.64 89.22 27.18 85.79 26.40 C 80.46 25.19 74.94 25.61 69.57 24.71 C 62.28 23.53 54.94 22.27 47.52 22.45 C 49.76 20.48 52.34 17.23 55.46 17.51 Z" />
</g>
<g id="#ff6e33ff">
<path fill="#ff6e33" opacity="1.00" d=" M 45.89 23.13 C 46.44 22.92 46.99 22.69 47.52 22.45 C 54.94 22.27 62.28 23.53 69.57 24.71 C 74.94 25.61 80.46 25.19 85.79 26.40 C 89.22 27.18 92.74 27.64 96.27 27.52 C 95.50 30.34 94.51 33.09 93.46 35.81 C 88.11 34.13 82.46 34.36 76.95 33.79 C 72.29 33.63 67.70 32.75 63.04 32.69 L 62.79 32.68 C 58.08 28.02 51.88 25.61 45.89 23.13 Z" />
</g>
<g id="#fe5344ff">
<path fill="#fe5344" opacity="1.00" d=" M 63.04 32.69 C 67.70 32.75 72.29 33.63 76.95 33.79 C 82.46 34.36 88.11 34.13 93.46 35.81 C 89.76 43.57 84.89 50.75 79.23 57.21 C 77.00 59.06 79.09 61.72 79.43 63.95 C 80.90 70.75 81.21 78.18 78.46 84.70 C 77.10 86.65 75.49 88.40 73.98 90.24 C 68.79 85.70 64.15 80.56 59.98 75.08 C 55.71 69.27 48.40 67.17 41.80 65.22 C 44.76 63.86 46.50 60.92 49.04 58.98 C 54.40 54.46 60.70 49.47 68.20 50.67 C 69.68 44.16 67.32 37.61 63.04 32.69 Z" />
</g>
<g id="#ff8c45ff">
<path fill="#ff8c45" opacity="1.00" d=" M 13.27 60.95 C 16.51 60.10 19.91 60.60 23.21 60.65 L 23.29 61.22 C 24.16 66.57 25.37 72.05 23.55 77.36 C 19.17 73.03 14.29 69.04 10.79 63.93 C 9.50 62.16 12.02 61.37 13.27 60.95 Z" />
</g>
<g id="#ffdc37ff">
<path fill="#ffdc37" opacity="1.00" d=" M 23.29 61.22 C 24.93 61.37 26.57 61.53 28.22 61.68 L 28.87 62.16 C 33.27 62.74 37.58 63.86 41.80 65.22 C 48.40 67.17 55.71 69.27 59.98 75.08 C 64.15 80.56 68.79 85.70 73.98 90.24 C 71.33 93.53 69.80 97.60 69.38 101.79 C 60.86 100.52 52.43 102.91 43.91 102.44 C 42.53 102.40 40.94 102.11 40.18 100.80 C 37.37 96.49 36.07 91.44 34.17 86.71 C 30.71 83.51 27.04 80.53 23.55 77.36 C 25.37 72.05 24.16 66.57 23.29 61.22 Z" />
</g>
<g id="#87888aff">
<path fill="#87888a" opacity="1.00" d=" M 138.69 82.58 C 142.26 75.69 149.24 70.55 157.03 69.76 C 166.05 68.76 174.99 74.08 179.21 81.96 C 183.79 89.74 183.60 99.36 180.62 107.67 C 180.22 107.31 179.43 106.59 179.04 106.24 C 181.82 98.36 181.58 89.22 177.07 82.03 C 173.07 75.14 164.86 70.99 156.95 71.93 C 148.29 72.74 140.73 79.57 138.73 87.98 C 137.30 93.20 138.23 98.71 140.04 103.71 L 139.06 104.32 C 137.53 103.86 137.55 102.07 137.04 100.85 C 135.43 94.83 135.76 88.15 138.69 82.58 Z" />
</g>
<g id="#833f2fff">
<path fill="#833f2f" opacity="1.00" d=" M 89.00 77.03 C 95.53 73.14 103.48 70.22 111.10 72.38 C 114.95 73.33 117.79 76.36 120.00 79.49 C 117.26 78.91 114.49 78.43 111.68 78.37 C 116.55 81.64 120.57 86.19 122.02 92.00 C 119.12 92.03 115.90 89.50 113.31 91.35 C 108.68 89.66 103.71 90.55 98.95 91.02 C 100.89 93.84 102.63 96.79 104.10 99.89 C 92.26 96.63 79.91 99.93 69.10 104.97 C 69.17 104.17 69.31 102.58 69.38 101.79 C 69.80 97.60 71.33 93.53 73.98 90.24 C 75.49 88.40 77.10 86.65 78.46 84.70 C 82.41 82.78 85.19 79.18 89.00 77.03 Z" />
</g>
<g id="#181d2bff">
<path fill="#181d2b" opacity="1.00" d=" M 138.73 87.98 C 140.73 79.57 148.29 72.74 156.95 71.93 C 164.86 70.99 173.07 75.14 177.07 82.03 C 181.58 89.22 181.82 98.36 179.04 106.24 C 176.46 113.63 170.15 120.63 161.96 121.24 C 152.16 120.20 143.67 112.69 140.04 103.71 C 138.23 98.71 137.30 93.20 138.73 87.98 Z" />
</g>
<g id="#af6348ff">
<path fill="#af6348" opacity="1.00" d=" M 98.95 91.02 C 103.71 90.55 108.68 89.66 113.31 91.35 C 121.28 97.44 126.29 106.51 133.31 113.57 C 127.63 121.94 120.65 130.29 110.90 133.95 C 106.06 135.98 101.15 137.93 95.99 138.97 C 90.20 140.36 84.08 140.97 78.78 143.85 C 75.99 145.31 74.43 148.24 73.47 151.12 C 70.82 159.29 73.14 168.73 79.01 174.95 C 82.28 178.53 86.47 181.12 90.83 183.16 C 95.99 185.63 101.81 185.84 107.26 187.33 C 102.45 187.41 97.81 185.82 93.01 185.63 C 83.05 184.48 72.28 181.36 65.76 173.25 C 60.07 164.74 59.35 153.59 61.83 143.85 C 62.78 140.20 62.42 136.41 62.49 132.68 C 62.70 130.87 63.11 129.09 63.53 127.32 C 62.71 126.63 61.88 125.94 61.02 125.29 C 61.72 125.11 63.11 124.74 63.80 124.56 C 64.31 121.62 64.73 118.67 65.32 115.76 C 65.93 113.68 66.73 111.65 67.43 109.60 C 67.95 108.04 68.42 106.46 69.10 104.97 C 79.91 99.93 92.26 96.63 104.10 99.89 C 102.63 96.79 100.89 93.84 98.95 91.02 Z" />
</g>
<g id="#fdc59fff">
<path fill="#fdc59f" opacity="1.00" d=" M 139.06 104.32 L 140.04 103.71 C 143.67 112.69 152.16 120.20 161.96 121.24 C 170.15 120.63 176.46 113.63 179.04 106.24 C 179.43 106.59 180.22 107.31 180.62 107.67 C 187.88 113.76 190.28 123.90 189.26 133.01 C 187.09 150.28 174.41 165.37 158.15 171.28 C 157.61 171.38 156.52 171.58 155.98 171.69 L 155.34 172.20 C 152.88 172.74 150.42 173.31 147.90 173.43 C 140.75 178.95 133.01 184.08 124.11 186.20 C 118.62 187.65 112.89 187.88 107.26 187.33 C 101.81 185.84 95.99 185.63 90.83 183.16 C 86.47 181.12 82.28 178.53 79.01 174.95 C 73.14 168.73 70.82 159.29 73.47 151.12 C 74.43 148.24 75.99 145.31 78.78 143.85 C 84.08 140.97 90.20 140.36 95.99 138.97 C 101.15 137.93 106.06 135.98 110.90 133.95 C 120.65 130.29 127.63 121.94 133.31 113.57 C 135.22 110.48 137.12 107.38 139.06 104.32 Z" />
</g>
<g id="#9f5740ff">
<path fill="#9f5740" opacity="1.00" d=" M 48.71 122.04 C 48.72 116.58 51.55 110.29 57.17 108.66 C 60.66 107.85 63.95 109.86 67.43 109.60 C 66.73 111.65 65.93 113.68 65.32 115.76 C 62.41 115.42 57.25 113.70 56.72 118.04 C 55.19 121.53 58.46 123.73 61.02 125.29 C 61.88 125.94 62.71 126.63 63.53 127.32 C 63.11 129.09 62.70 130.87 62.49 132.68 C 56.41 132.43 49.46 128.62 48.71 122.04 Z" />
</g>
<g id="#c57761ff">
<path fill="#c57761" opacity="1.00" d=" M 56.72 118.04 C 57.25 113.70 62.41 115.42 65.32 115.76 C 64.73 118.67 64.31 121.62 63.80 124.56 C 63.11 124.74 61.72 125.11 61.02 125.29 C 58.46 123.73 55.19 121.53 56.72 118.04 Z" />
</g>
<g id="#0000007e">
<path fill="#000000" opacity="0.49" d=" M 56.40 160.18 C 55.12 156.20 55.19 151.76 56.47 147.79 C 56.34 151.92 56.31 156.05 56.40 160.18 Z" />
</g>
</svg>
