<!DOCTYPE svg PUBLIC "-//W3C//DTD SVG 20010904//EN" "http://www.w3.org/TR/2001/REC-SVG-20010904/DTD/svg10.dtd">
<svg version="1.0" xmlns="http://www.w3.org/2000/svg" width="200px" height="200px" viewBox="0 0 2000 2000" preserveAspectRatio="xMidYMid meet">
<g id="layer101" fill="#010203" stroke="none">
 <path d="M865 1910 c-55 -27 -163 -68 -240 -92 -77 -24 -145 -47 -152 -51 -8 -5 -12 -34 -12 -79 0 -59 5 -77 25 -107 36 -53 32 -91 -17 -147 -23 -26 -52 -65 -66 -85 -13 -20 -38 -43 -54 -49 -39 -17 -86 -72 -118 -140 -23 -49 -26 -67 -25 -160 1 -138 18 -201 146 -531 113 -293 401 -462 729 -428 175 18 293 61 383 141 63 55 240 276 272 340 34 66 53 164 55 274 4 220 3 250 -14 301 -22 64 -80 141 -112 149 -15 4 -36 25 -55 55 -17 28 -48 69 -69 92 -57 62 -75 102 -62 138 6 17 19 43 31 58 11 16 20 43 20 59 0 17 4 42 9 55 12 32 -6 68 -39 78 -172 50 -302 96 -378 134 -55 26 -106 45 -125 44 -18 0 -77 -23 -132 -49z"/>
 </g>
<g id="layer102" fill="#4e4e56" stroke="none">
 <path d="M905 1864 c-49 -24 -148 -62 -220 -84 -71 -23 -138 -45 -148 -49 -16 -5 -9 -14 43 -55 33 -26 59 -50 57 -52 -2 -2 -19 1 -38 6 -18 6 -44 10 -56 10 l-22 0 24 -46 c42 -79 33 -124 -44 -212 -27 -32 -63 -85 -80 -119 -36 -69 -71 -196 -72 -257 0 -38 -1 -39 -11 -16 -19 46 -15 161 8 208 26 52 15 54 -25 5 -84 -102 -82 -278 6 -508 19 -49 43 -117 55 -150 72 -215 203 -349 413 -422 72 -25 93 -27 210 -27 191 1 321 41 423 129 67 58 229 266 262 336 19 41 32 88 36 129 l6 65 -36 -71 c-48 -96 -74 -115 -32 -23 19 41 44 107 56 147 39 129 18 300 -43 351 -14 11 -14 7 0 -36 15 -48 12 -126 -6 -175 -7 -19 -10 -11 -15 42 -15 132 -60 244 -138 339 -75 92 -98 132 -98 172 0 38 23 103 40 114 18 11 11 25 -12 25 -13 -1 -40 -7 -61 -15 -37 -13 -38 -13 -22 6 10 10 42 35 71 55 30 21 53 38 52 39 -2 1 -59 19 -128 40 -69 20 -174 59 -235 87 -60 27 -114 51 -120 53 -5 2 -50 -16 -100 -41z"/>
 </g>
<g id="layer103" fill="#276478" stroke="none">
 <path d="M940 1880 c-73 -39 -214 -93 -328 -127 l-94 -27 29 -20 c49 -36 100 -89 78 -81 -10 3 -39 9 -63 12 l-43 6 26 -48 c42 -80 33 -124 -44 -213 -27 -32 -63 -85 -80 -119 -36 -69 -71 -196 -72 -257 0 -38 -1 -39 -11 -16 -19 46 -15 161 8 208 26 52 15 54 -25 5 -84 -102 -82 -278 6 -508 19 -49 43 -117 55 -150 72 -215 203 -349 413 -422 72 -25 93 -27 210 -27 191 1 321 41 423 129 67 58 229 266 262 336 19 41 32 88 36 129 l6 65 -36 -71 c-48 -96 -74 -115 -32 -23 19 41 44 107 56 147 39 129 18 300 -43 351 -14 11 -14 7 0 -36 15 -48 12 -126 -6 -175 -7 -19 -10 -11 -15 42 -15 132 -60 244 -138 339 -75 92 -98 132 -98 172 0 38 23 103 40 114 18 11 11 25 -12 25 -13 -1 -41 -7 -63 -15 l-40 -14 40 37 c22 21 53 46 68 58 l29 20 -94 28 c-131 39 -221 73 -310 118 -43 21 -79 38 -80 38 -2 -1 -28 -14 -58 -30z m168 -40 c60 -27 159 -64 218 -82 60 -18 111 -34 114 -36 3 -2 -6 -13 -20 -24 -14 -11 -53 -47 -87 -79 l-62 -60 -53 41 c-67 52 -183 110 -217 110 -35 0 -149 -56 -234 -114 -38 -26 -66 -42 -62 -36 9 14 -24 52 -38 43 -5 -3 -7 -1 -3 5 3 5 -19 33 -51 61 -64 58 -68 52 57 86 69 19 288 110 305 126 13 13 14 13 133 -41z m-218 -835 c0 -6 -115 -40 -165 -50 -61 -11 -38 1 55 29 86 25 110 30 110 21z m249 -1 c17 -4 31 -10 31 -15 0 -13 -20 -10 -55 6 -33 15 -24 18 24 9z"/>
 </g>
<g id="layer104" fill="#939591" stroke="none">
 <path d="M896 1860 c-55 -27 -132 -59 -170 -71 -39 -12 -101 -31 -138 -43 l-68 -21 56 -45 c108 -86 119 -92 51 -27 -37 36 -64 68 -60 70 4 3 46 16 93 30 98 29 160 53 264 102 l74 35 110 -49 c60 -28 159 -65 218 -83 60 -18 111 -33 113 -35 2 -1 -27 -32 -65 -67 -79 -75 -81 -90 -2 -18 29 26 66 56 81 67 l29 21 -94 28 c-131 39 -221 73 -310 118 -43 21 -79 38 -80 37 -2 0 -48 -22 -102 -49z"/>
 <path d="M911 1680 c-90 -43 -192 -112 -236 -162 -21 -22 -53 -74 -72 -115 -20 -44 -40 -73 -49 -73 -8 0 -36 -21 -63 -48 -34 -34 -51 -61 -59 -94 -13 -52 -16 -148 -4 -147 4 0 22 31 40 68 27 59 157 219 168 209 1 -2 -6 -30 -17 -63 -29 -85 -22 -259 13 -360 27 -75 92 -210 106 -219 5 -3 27 23 49 57 61 92 222 267 247 267 3 0 6 -31 6 -70 l0 -70 60 58 59 57 -37 17 c-40 18 -26 23 25 9 26 -8 37 -6 57 10 33 26 42 24 50 -11 3 -19 14 -34 28 -40 l23 -9 -24 0 c-16 -1 -21 -5 -17 -16 3 -8 11 -65 17 -125 7 -61 15 -110 18 -110 10 0 75 111 101 170 35 82 39 225 11 344 -12 49 -20 91 -17 93 7 7 83 -91 114 -147 16 -30 36 -73 43 -95 l13 -40 8 43 c9 51 -5 133 -30 176 -10 17 -40 46 -67 64 -38 26 -58 50 -85 100 -55 107 -177 214 -313 278 -67 31 -89 30 -166 -6z m-21 -675 c0 -6 -115 -40 -165 -50 -61 -11 -38 1 55 29 86 25 110 30 110 21z"/>
 </g>
<g id="layer105" fill="#fcf0de" stroke="none">
 <path d="M953 1695 c-92 -28 -257 -143 -301 -210 -16 -24 -40 -69 -53 -99 -13 -31 -29 -56 -35 -56 -22 0 -96 -64 -113 -99 -20 -40 -33 -136 -22 -164 5 -13 13 -4 35 42 31 66 118 177 159 204 32 21 32 21 6 -40 -41 -96 -34 -323 10 -323 10 0 62 14 116 30 54 17 109 30 124 29 23 0 22 -2 -15 -18 -45 -21 -170 -51 -208 -51 -17 0 -26 -6 -26 -16 0 -34 87 -225 109 -239 5 -2 29 26 53 63 50 75 158 195 219 242 l39 32 -6 -79 -6 -78 56 55 56 54 -32 19 -33 18 49 -5 c39 -5 54 -2 78 15 16 12 31 20 33 18 2 -2 7 -20 12 -39 8 -30 14 -35 59 -47 l49 -12 -48 3 -49 4 6 -42 c3 -22 8 -66 11 -96 12 -107 12 -107 45 -62 100 138 123 302 70 491 -11 40 -19 75 -17 77 12 12 104 -108 140 -184 l42 -87 3 52 c2 29 -2 71 -8 93 -12 46 -81 127 -114 136 -14 3 -31 26 -48 63 -15 32 -44 78 -64 102 -68 82 -238 197 -314 212 -14 3 -44 -1 -67 -8z"/>
 </g>

</svg>