<?xml version="1.0" encoding="UTF-8" ?>
<!DOCTYPE svg PUBLIC "-//W3C//DTD SVG 1.1//EN" "http://www.w3.org/Graphics/SVG/1.1/DTD/svg11.dtd">
<svg width="200pt" height="200pt" viewBox="0 0 200 200" version="1.1" xmlns="http://www.w3.org/2000/svg">
<g id="#000000ff">
<path fill="#000000" opacity="1.00" d=" M 59.93 27.94 C 69.71 20.58 82.35 16.48 94.58 18.56 C 96.79 18.89 99.01 20.07 101.25 19.28 C 112.85 16.16 125.45 19.10 135.43 25.46 C 150.82 35.23 161.40 51.55 165.77 69.09 C 171.75 92.60 171.48 117.12 170.27 141.18 C 169.65 147.79 169.47 154.44 168.59 161.03 C 168.46 164.53 165.74 167.18 163.16 169.21 C 157.35 173.52 150.74 176.67 143.94 179.09 C 139.97 180.53 135.58 181.70 131.42 180.38 C 129.48 179.75 128.61 177.79 128.07 176.00 C 126.89 175.16 125.45 174.56 124.58 173.35 C 124.01 171.72 124.37 169.95 124.30 168.27 C 116.08 175.33 105.02 179.91 94.10 177.70 C 87.71 177.06 81.93 173.90 76.79 170.23 C 77.18 174.29 73.48 176.08 70.09 176.55 C 68.77 182.42 61.22 181.28 56.91 179.83 C 49.86 177.56 43.08 174.35 37.01 170.10 C 34.45 168.23 31.83 166.01 30.72 162.95 C 29.50 155.85 29.46 148.63 28.75 141.47 C 27.53 117.29 27.22 92.63 33.26 69.01 C 37.26 52.88 46.54 37.90 59.93 27.94 M 71.41 26.55 C 59.08 32.54 49.52 43.27 43.33 55.37 C 37.90 66.53 35.57 78.90 34.17 91.15 C 31.52 114.06 32.94 137.18 35.00 160.07 C 35.89 164.56 40.56 166.67 44.05 168.91 C 50.38 172.19 57.01 176.08 64.30 176.21 C 65.74 174.63 63.75 171.79 63.15 169.99 C 63.79 167.39 66.06 166.01 68.17 164.68 C 69.48 166.88 69.12 171.30 72.30 171.54 C 72.13 168.95 71.56 166.42 70.78 163.96 C 71.58 163.12 72.39 162.29 73.19 161.45 C 79.39 166.43 86.06 171.63 94.13 172.89 C 98.77 173.99 103.55 173.21 108.13 172.25 C 114.35 169.98 119.71 166.01 124.78 161.85 C 126.30 162.95 127.84 164.01 129.39 165.05 C 128.94 167.26 128.49 169.49 128.55 171.76 C 129.75 171.14 130.94 170.05 130.49 168.59 L 131.09 166.62 C 132.55 167.41 133.97 168.30 135.55 168.86 L 135.72 169.26 C 134.75 171.35 133.90 173.49 133.15 175.66 C 134.75 176.23 136.48 176.50 138.12 175.88 C 144.70 174.16 150.92 171.25 156.75 167.78 C 159.16 166.26 161.71 164.71 163.29 162.27 C 164.59 159.71 164.26 156.74 164.52 153.98 C 165.84 139.35 166.63 124.66 166.26 109.97 C 165.30 91.70 163.88 72.84 156.02 56.02 C 148.13 40.22 134.07 25.85 116.00 22.99 C 110.31 21.80 104.64 23.33 99.14 24.55 C 90.10 21.26 79.99 22.44 71.41 26.55 Z" />
</g>
<g id="#bcbab8ff">
<path fill="#bcbab8" opacity="1.00" d=" M 71.41 26.55 C 79.99 22.44 90.10 21.26 99.14 24.55 C 104.64 23.33 110.31 21.80 116.00 22.99 C 134.07 25.85 148.13 40.22 156.02 56.02 C 163.88 72.84 165.30 91.70 166.26 109.97 C 166.63 124.66 165.84 139.35 164.52 153.98 C 164.26 156.74 164.59 159.71 163.29 162.27 C 161.71 164.71 159.16 166.26 156.75 167.78 C 150.92 171.25 144.70 174.16 138.12 175.88 C 136.48 176.50 134.75 176.23 133.15 175.66 C 133.90 173.49 134.75 171.35 135.72 169.26 C 135.89 169.68 136.25 170.52 136.42 170.94 C 136.17 171.86 135.66 173.70 135.40 174.62 C 143.23 172.96 150.70 169.74 157.41 165.40 C 159.53 163.80 162.36 162.03 162.33 159.03 C 164.58 133.77 165.85 108.17 161.98 83.00 C 160.15 72.06 157.54 60.95 151.62 51.42 C 145.70 41.61 137.34 32.98 126.87 28.08 C 119.14 24.60 110.15 23.18 101.95 25.85 C 98.94 27.10 95.96 25.26 92.98 24.88 C 82.47 23.16 71.69 27.03 63.35 33.35 C 53.55 40.86 46.09 51.31 41.88 62.90 C 39.12 70.99 37.29 79.38 36.29 87.87 C 33.36 111.50 34.47 135.41 36.64 159.06 C 36.57 162.09 39.43 163.85 41.57 165.46 C 48.08 169.70 55.30 172.90 62.87 174.68 C 62.31 172.71 61.71 170.71 62.21 168.66 C 62.45 168.99 62.91 169.66 63.15 169.99 C 63.75 171.79 65.74 174.63 64.30 176.21 C 57.01 176.08 50.38 172.19 44.05 168.91 C 40.56 166.67 35.89 164.56 35.00 160.07 C 32.94 137.18 31.52 114.06 34.17 91.15 C 35.57 78.90 37.90 66.53 43.33 55.37 C 49.52 43.27 59.08 32.54 71.41 26.55 Z" />
</g>
<g id="#604b40ff">
<path fill="#604b40" opacity="1.00" d=" M 63.35 33.35 C 71.69 27.03 82.47 23.16 92.98 24.88 C 95.96 25.26 98.94 27.10 101.95 25.85 C 110.15 23.18 119.14 24.60 126.87 28.08 C 137.34 32.98 145.70 41.61 151.62 51.42 C 157.54 60.95 160.15 72.06 161.98 83.00 C 165.85 108.17 164.58 133.77 162.33 159.03 C 162.36 162.03 159.53 163.80 157.41 165.40 C 150.70 169.74 143.23 172.96 135.40 174.62 C 135.66 173.70 136.17 171.86 136.42 170.94 C 136.25 170.52 135.89 169.68 135.72 169.26 L 135.55 168.86 C 135.91 168.94 136.62 169.09 136.98 169.16 C 139.76 160.77 140.87 151.97 142.50 143.32 C 142.90 141.59 142.51 139.86 142.00 138.22 C 144.69 127.13 143.25 115.57 142.29 104.35 C 141.26 104.29 140.24 104.23 139.21 104.19 C 137.61 104.40 136.10 104.97 134.63 105.61 C 134.61 105.32 134.55 104.73 134.52 104.44 C 126.47 105.61 118.53 107.46 110.75 109.86 C 109.15 110.40 107.46 110.57 105.79 110.31 C 109.58 107.57 114.17 106.43 118.40 104.59 C 123.70 102.33 129.20 100.65 134.63 98.75 C 133.55 89.77 132.40 80.63 128.60 72.32 C 128.03 70.09 125.40 70.17 123.61 69.58 C 124.44 69.52 126.09 69.39 126.91 69.32 C 123.50 64.69 119.19 59.49 112.93 59.32 C 107.28 58.64 103.23 63.18 99.10 66.21 C 95.34 63.05 91.40 58.93 86.04 59.34 C 79.57 59.25 75.11 64.64 71.70 69.44 C 77.23 68.53 82.86 69.07 88.15 70.93 C 82.50 69.97 76.73 69.84 71.04 70.50 C 66.92 79.49 65.04 89.43 65.11 99.30 C 73.22 101.69 80.96 105.10 88.86 108.08 C 90.31 108.52 91.40 109.55 92.17 110.81 C 82.93 108.82 73.93 105.65 64.49 104.57 C 64.10 119.47 65.23 134.40 67.53 149.13 C 68.00 152.21 68.31 155.39 69.55 158.29 C 69.70 160.62 69.78 162.95 69.76 165.29 C 67.74 162.01 67.10 158.17 65.77 154.62 C 62.36 138.08 59.57 121.27 60.29 104.31 C 58.83 104.36 57.36 104.42 55.90 104.49 C 55.45 113.34 54.27 122.35 56.01 131.13 C 54.08 137.66 56.57 144.41 57.19 150.97 C 58.54 156.90 58.59 163.53 62.21 168.66 C 61.71 170.71 62.31 172.71 62.87 174.68 C 55.30 172.90 48.08 169.70 41.57 165.46 C 39.43 163.85 36.57 162.09 36.64 159.06 C 34.47 135.41 33.36 111.50 36.29 87.87 C 37.29 79.38 39.12 70.99 41.88 62.90 C 46.09 51.31 53.55 40.86 63.35 33.35 M 62.88 76.82 C 59.76 85.18 57.54 93.90 56.45 102.75 C 57.63 100.88 58.96 99.10 60.49 97.49 C 61.31 88.78 63.10 80.18 65.77 71.86 C 64.12 73.02 63.62 75.06 62.88 76.82 M 133.33 71.86 C 135.68 80.04 137.72 88.35 138.58 96.84 C 138.69 99.06 140.56 100.55 141.82 102.20 C 140.55 91.75 137.87 81.38 133.33 71.86 Z" />
</g>
<g id="#23211fff">
<path fill="#23211f" opacity="1.00" d=" M 71.70 69.44 C 75.11 64.64 79.57 59.25 86.04 59.34 C 91.40 58.93 95.34 63.05 99.10 66.21 C 103.23 63.18 107.28 58.64 112.93 59.32 C 119.19 59.49 123.50 64.69 126.91 69.32 C 126.09 69.39 124.44 69.52 123.61 69.58 C 115.06 68.97 106.73 71.37 99.01 74.84 C 95.35 73.66 91.94 71.74 88.15 70.93 C 82.86 69.07 77.23 68.53 71.70 69.44 Z" />
</g>
<g id="#fddcc3ff">
<path fill="#fddcc3" opacity="1.00" d=" M 99.01 74.84 C 106.73 71.37 115.06 68.97 123.61 69.58 C 125.40 70.17 128.03 70.09 128.60 72.32 C 132.40 80.63 133.55 89.77 134.63 98.75 C 129.20 100.65 123.70 102.33 118.40 104.59 C 114.17 106.43 109.58 107.57 105.79 110.31 C 107.46 110.57 109.15 110.40 110.75 109.86 C 118.53 107.46 126.47 105.61 134.52 104.44 C 134.55 104.73 134.61 105.32 134.63 105.61 C 135.47 111.40 135.12 117.24 134.76 123.05 C 134.81 131.41 133.82 139.71 132.88 148.00 C 132.51 150.76 132.35 153.65 131.07 156.18 C 129.01 158.12 126.93 160.03 124.78 161.85 C 119.71 166.01 114.35 169.98 108.13 172.25 C 103.55 173.21 98.77 173.99 94.13 172.89 C 86.06 171.63 79.39 166.43 73.19 161.45 C 71.96 160.42 70.74 159.37 69.55 158.29 C 68.31 155.39 68.00 152.21 67.53 149.13 C 65.23 134.40 64.10 119.47 64.49 104.57 C 73.93 105.65 82.93 108.82 92.17 110.81 C 91.40 109.55 90.31 108.52 88.86 108.08 C 80.96 105.10 73.22 101.69 65.11 99.30 C 65.04 89.43 66.92 79.49 71.04 70.50 C 76.73 69.84 82.50 69.97 88.15 70.93 C 91.94 71.74 95.35 73.66 99.01 74.84 Z" />
</g>
<g id="#ffecd3ff">
<path fill="#ffecd3" opacity="1.00" d=" M 62.88 76.82 C 63.62 75.06 64.12 73.02 65.77 71.86 C 63.10 80.18 61.31 88.78 60.49 97.49 C 58.96 99.10 57.63 100.88 56.45 102.75 C 57.54 93.90 59.76 85.18 62.88 76.82 Z" />
</g>
<g id="#ffeed0ff">
<path fill="#ffeed0" opacity="1.00" d=" M 133.33 71.86 C 137.87 81.38 140.55 91.75 141.82 102.20 C 140.56 100.55 138.69 99.06 138.58 96.84 C 137.72 88.35 135.68 80.04 133.33 71.86 Z" />
</g>
<g id="#584439ff">
<path fill="#584439" opacity="1.00" d=" M 134.63 105.61 C 136.10 104.97 137.61 104.40 139.21 104.19 C 139.80 120.44 137.94 136.70 134.63 152.61 C 133.71 157.34 132.46 162.00 131.09 166.62 L 130.49 168.59 C 129.92 164.44 130.58 160.29 131.07 156.18 C 132.35 153.65 132.51 150.76 132.88 148.00 C 133.82 139.71 134.81 131.41 134.76 123.05 C 135.12 117.24 135.47 111.40 134.63 105.61 Z" />
</g>
<g id="#ffe5cbff">
<path fill="#ffe5cb" opacity="1.00" d=" M 139.21 104.19 C 140.24 104.23 141.26 104.29 142.29 104.35 C 143.25 115.57 144.69 127.13 142.00 138.22 C 140.63 143.49 138.27 148.51 134.63 152.61 C 137.94 136.70 139.80 120.44 139.21 104.19 Z" />
</g>
<g id="#ffe3c9ff">
<path fill="#ffe3c9" opacity="1.00" d=" M 55.90 104.49 C 57.36 104.42 58.83 104.36 60.29 104.31 C 59.57 121.27 62.36 138.08 65.77 154.62 C 59.33 148.43 57.88 139.43 56.01 131.13 C 54.27 122.35 55.45 113.34 55.90 104.49 Z" />
</g>
<g id="#23201fff">
<path fill="#23201f" opacity="1.00" d=" M 57.19 150.97 C 56.57 144.41 54.08 137.66 56.01 131.13 C 57.88 139.43 59.33 148.43 65.77 154.62 C 67.10 158.17 67.74 162.01 69.76 165.29 C 69.78 162.95 69.70 160.62 69.55 158.29 C 70.74 159.37 71.96 160.42 73.19 161.45 C 72.39 162.29 71.58 163.12 70.78 163.96 C 71.56 166.42 72.13 168.95 72.30 171.54 C 69.12 171.30 69.48 166.88 68.17 164.68 C 66.06 166.01 63.79 167.39 63.15 169.99 C 62.91 169.66 62.45 168.99 62.21 168.66 C 58.59 163.53 58.54 156.90 57.19 150.97 Z" />
</g>
<g id="#22211eff">
<path fill="#22211e" opacity="1.00" d=" M 142.00 138.22 C 142.51 139.86 142.90 141.59 142.50 143.32 C 140.87 151.97 139.76 160.77 136.98 169.16 C 136.62 169.09 135.91 168.94 135.55 168.86 C 133.97 168.30 132.55 167.41 131.09 166.62 C 132.46 162.00 133.71 157.34 134.63 152.61 C 138.27 148.51 140.63 143.49 142.00 138.22 Z" />
</g>
<g id="#232121ff">
<path fill="#232121" opacity="1.00" d=" M 124.78 161.85 C 126.93 160.03 129.01 158.12 131.07 156.18 C 130.58 160.29 129.92 164.44 130.49 168.59 C 130.94 170.05 129.75 171.14 128.55 171.76 C 128.49 169.49 128.94 167.26 129.39 165.05 C 127.84 164.01 126.30 162.95 124.78 161.85 Z" />
</g>
</svg>
