<!DOCTYPE svg PUBLIC "-//W3C//DTD SVG 20010904//EN" "http://www.w3.org/TR/2001/REC-SVG-20010904/DTD/svg10.dtd">
<svg version="1.0" xmlns="http://www.w3.org/2000/svg" width="200px" height="200px" viewBox="0 0 2000 2000" preserveAspectRatio="xMidYMid meet">
<g id="layer101" fill="#030101" stroke="none">
<path d="M886 1880 c-66 -28 -179 -94 -224 -133 -20 -17 -31 -25 -24 -17 17 19 15 65 -3 84 -25 24 -126 58 -192 63 -69 6 -181 -17 -230 -47 -57 -34 -92 -149 -93 -305 0 -123 13 -172 81 -317 l54 -113 -3 -112 c-1 -64 3 -123 9 -140 6 -15 19 -67 29 -115 52 -247 245 -432 523 -498 45 -11 112 -20 149 -20 61 0 67 -2 70 -22 2 -13 22 -35 46 -53 41 -28 50 -30 131 -30 78 0 93 3 153 33 108 53 178 156 149 220 -10 22 -6 30 48 88 94 100 129 184 182 434 6 28 6 64 -1 99 -12 67 -4 104 56 233 85 182 102 299 68 451 -26 112 -50 156 -99 178 -111 49 -260 48 -361 -2 -51 -26 -66 -51 -52 -88 8 -23 8 -23 -14 -7 -198 144 -333 185 -452 136z"/>
</g>
<g id="layer102" fill="#f34522" stroke="none">
<path d="M897 1826 c-94 -39 -166 -87 -241 -159 -68 -64 -72 -67 -99 -56 -24 10 -27 16 -22 38 3 14 19 48 35 74 17 27 30 50 30 51 0 2 -24 14 -52 27 -104 45 -301 21 -333 -41 -43 -83 -58 -263 -30 -369 8 -31 35 -101 60 -154 62 -132 78 -197 64 -254 -12 -45 -7 -119 10 -150 5 -10 14 -49 21 -88 33 -203 214 -387 450 -457 38 -12 111 -22 178 -25 l112 -6 0 -34 c0 -30 5 -36 43 -53 111 -51 282 10 329 117 l20 45 -26 27 -26 27 54 47 c98 85 186 248 186 346 0 20 7 47 16 60 14 19 16 40 11 118 -6 110 2 144 66 284 24 52 50 117 58 144 28 100 9 313 -35 380 -18 27 -86 52 -168 61 -43 5 -73 2 -127 -15 -38 -12 -73 -26 -76 -31 -3 -5 5 -29 19 -52 14 -24 29 -55 35 -70 10 -25 8 -29 -20 -44 l-31 -16 -56 56 c-70 69 -133 114 -219 157 -89 44 -157 49 -236 15z"/>
</g>
<g id="layer103" fill="#ee656b" stroke="none">
<path d="M897 1826 c-94 -39 -166 -87 -241 -159 -68 -64 -72 -67 -99 -56 -24 10 -27 16 -22 38 3 14 19 48 35 74 17 27 30 50 30 51 0 2 -24 14 -52 27 -104 45 -301 21 -333 -41 -43 -83 -58 -263 -30 -369 8 -31 35 -101 60 -154 62 -132 78 -197 64 -254 -12 -45 -7 -119 10 -150 5 -10 14 -49 21 -88 33 -203 214 -387 450 -457 38 -12 111 -22 178 -25 l112 -6 0 -34 c0 -30 5 -36 43 -53 111 -51 282 10 329 117 l20 45 -26 27 -26 27 54 47 c98 85 186 248 186 346 0 20 7 47 16 60 14 19 16 40 11 118 -6 110 2 144 66 284 24 52 50 117 58 144 28 100 9 313 -35 380 -18 27 -86 52 -168 61 -43 5 -73 2 -127 -15 -38 -12 -73 -26 -76 -31 -3 -5 5 -29 19 -52 14 -24 29 -55 35 -70 10 -25 8 -29 -20 -44 l-31 -16 -56 56 c-70 69 -133 114 -219 157 -89 44 -157 49 -236 15z m-317 -275 c0 -18 125 -71 180 -77 87 -8 95 -11 146 -54 68 -56 114 -56 178 0 45 38 57 42 159 55 58 8 111 29 154 61 31 24 54 31 52 17 -1 -5 -1 -17 0 -28 1 -16 3 -17 11 -5 5 8 11 12 14 10 10 -11 -15 -165 -38 -228 -13 -37 -27 -93 -31 -124 l-7 -56 -52 -6 c-72 -9 -77 -14 -78 -82 -1 -56 -2 -57 -11 -24 -30 109 -36 118 -91 131 -68 16 -267 16 -335 0 -47 -12 -55 -18 -68 -50 -9 -20 -18 -53 -21 -73 -7 -59 -22 -45 -22 22 l0 59 -37 10 c-21 6 -48 11 -60 11 -18 0 -23 7 -28 38 -4 20 -20 82 -36 137 -35 116 -47 199 -30 209 6 4 11 12 11 17 0 6 -5 7 -12 3 -7 -4 -8 -3 -4 4 4 6 13 9 21 5 9 -3 15 1 15 11 0 9 5 16 10 16 6 0 10 -4 10 -9z"/>
</g>
<g id="layer104" fill="#f58552" stroke="none">
<path d="M897 1826 c-94 -39 -166 -87 -241 -159 -68 -64 -72 -67 -99 -56 -24 10 -27 16 -22 38 3 14 19 48 35 74 17 27 30 50 30 51 0 2 -24 14 -52 27 -104 45 -301 21 -333 -41 -43 -83 -58 -263 -30 -369 8 -31 35 -101 60 -154 62 -132 78 -197 64 -254 -12 -45 -7 -119 10 -150 5 -10 14 -49 21 -88 33 -203 214 -387 450 -457 38 -12 111 -22 178 -25 l112 -6 0 -34 c0 -30 5 -36 43 -53 111 -51 282 10 329 117 l20 45 -26 27 -26 27 54 47 c98 85 186 248 186 346 0 20 7 47 16 60 14 19 16 40 11 118 -6 110 2 144 66 284 24 52 50 117 58 144 28 100 9 313 -35 380 -18 27 -86 52 -168 61 -43 5 -73 2 -127 -15 -38 -12 -73 -26 -76 -31 -3 -5 5 -29 19 -52 14 -24 29 -55 35 -70 10 -25 8 -29 -20 -44 l-31 -16 -56 56 c-70 69 -133 114 -219 157 -89 44 -157 49 -236 15z m-317 -275 c0 -18 125 -71 180 -77 87 -8 95 -11 146 -54 68 -56 114 -56 178 0 45 38 57 42 159 55 58 8 111 29 154 61 31 24 54 31 52 17 -1 -5 -1 -17 0 -28 1 -16 3 -17 11 -5 5 8 11 12 14 10 10 -11 -15 -165 -38 -228 -13 -37 -27 -93 -31 -124 l-7 -56 -52 -6 c-72 -9 -77 -14 -78 -82 -1 -56 -2 -57 -11 -24 -30 109 -36 118 -91 131 -68 16 -267 16 -335 0 -47 -12 -55 -18 -68 -50 -9 -20 -18 -53 -21 -73 -7 -59 -22 -45 -22 22 l0 59 -37 10 c-21 6 -48 11 -60 11 -18 0 -23 7 -28 38 -4 20 -20 82 -36 137 -35 116 -47 199 -30 209 6 4 11 12 11 17 0 6 -5 7 -12 3 -7 -4 -8 -3 -4 4 4 6 13 9 21 5 9 -3 15 1 15 11 0 9 5 16 10 16 6 0 10 -4 10 -9z m1033 -593 c3 -13 9 -53 12 -90 6 -59 5 -68 -9 -68 -9 0 -16 -5 -16 -11 0 -5 6 -7 13 -3 6 3 -1 -7 -18 -23 -16 -16 -33 -28 -37 -26 -4 2 -25 -5 -47 -17 -68 -34 -71 -32 -73 70 -1 50 -2 97 -2 106 -1 10 23 25 71 44 40 15 75 25 78 22 3 -3 5 0 5 6 0 21 18 13 23 -10z"/>
</g>
<g id="layer105" fill="#f8e076" stroke="none">
<path d="M897 1826 c-121 -51 -267 -161 -309 -233 -17 -29 -17 -31 5 -51 33 -31 110 -62 170 -68 83 -8 92 -12 143 -54 68 -56 114 -56 178 0 45 38 57 42 159 55 89 12 200 76 181 106 -7 12 12 29 34 29 17 0 15 -47 -2 -53 -9 -4 -12 -14 -9 -27 4 -16 8 -18 14 -9 4 8 10 11 13 9 10 -11 -15 -165 -38 -228 -13 -37 -27 -93 -31 -124 l-7 -56 -49 -6 c-78 -11 -79 -11 -80 -80 -1 -58 -2 -59 -11 -26 -33 112 -37 118 -92 131 -68 17 -288 15 -346 -3 -39 -12 -47 -19 -62 -58 -9 -25 -17 -60 -17 -77 -1 -18 -5 -33 -11 -33 -6 0 -10 28 -10 65 l0 64 -37 10 c-21 6 -48 11 -60 11 -18 0 -23 7 -28 38 -4 20 -20 82 -36 137 -40 133 -46 186 -25 216 9 13 16 30 15 39 0 8 -5 4 -12 -10 l-11 -25 -4 30 c-6 46 16 128 48 179 17 26 30 48 30 50 0 2 -24 14 -52 27 -104 45 -301 21 -333 -41 -43 -83 -58 -263 -30 -369 8 -31 35 -101 60 -154 62 -133 77 -195 63 -256 -13 -57 -4 -128 20 -156 43 -52 167 -119 288 -156 251 -77 536 -75 779 6 l40 13 0 112 1 111 84 34 c46 19 86 32 88 30 7 -7 23 -149 19 -167 -8 -29 10 -21 39 17 26 35 27 39 21 131 -6 111 2 145 66 285 24 52 50 117 58 144 28 100 9 313 -35 380 -18 27 -86 52 -168 61 -43 5 -73 2 -127 -15 -38 -12 -73 -26 -76 -31 -3 -5 5 -29 19 -52 14 -24 29 -55 35 -70 10 -25 8 -29 -20 -44 l-31 -16 -56 56 c-70 69 -133 114 -219 157 -89 44 -157 49 -236 15z"/>
</g>
<g id="layer106" fill="#f9e2cc" stroke="none">
<path d="M897 1826 c-121 -51 -267 -161 -309 -233 -17 -29 -17 -31 5 -51 33 -31 110 -62 170 -68 83 -8 92 -12 143 -54 68 -56 114 -56 178 0 45 38 56 42 161 56 53 6 145 45 165 69 18 22 5 47 -58 108 -70 70 -133 115 -219 158 -89 44 -157 49 -236 15z"/>
</g>
<g id="layer107" fill="#f6f6f6" stroke="none">
<path d="M312 1003 c-4 -10 -7 -47 -7 -83 0 -78 15 -102 95 -153 256 -164 666 -202 995 -92 l40 13 0 105 c0 58 -3 108 -6 111 -3 3 -21 1 -40 -5 -94 -27 -301 -59 -390 -59 -122 0 -326 36 -464 82 -70 24 -183 76 -191 89 -9 14 -24 10 -32 -8z"/>
<path d="M1638 997 c-28 -22 -28 -22 -17 -96 6 -41 8 -83 6 -93 -8 -28 9 -21 37 15 22 28 26 45 26 100 0 65 -6 97 -19 97 -3 0 -18 -10 -33 -23z"/>
<path d="M1390 370 c-39 -31 -167 -81 -239 -94 l-66 -12 -3 -37 c-3 -35 -1 -38 40 -57 112 -51 282 10 330 117 l20 46 -28 28 -29 28 -25 -19z"/>
</g>


</svg>