<!DOCTYPE svg PUBLIC "-//W3C//DTD SVG 20010904//EN" "http://www.w3.org/TR/2001/REC-SVG-20010904/DTD/svg10.dtd">
<svg version="1.0" xmlns="http://www.w3.org/2000/svg" width="144px" height="144px" viewBox="0 0 1440 1440" preserveAspectRatio="xMidYMid meet">
<g id="layer101" fill="#060201" stroke="none">
 <path d="M126 1425 c-21 -7 -51 -26 -67 -41 -58 -56 -59 -65 -59 -663 0 -368 4 -559 11 -586 15 -52 74 -110 127 -124 29 -8 210 -11 606 -9 l564 3 43 30 c24 17 52 46 64 65 19 34 20 51 23 595 2 419 0 571 -9 604 -16 56 -71 112 -125 129 -63 18 -1124 16 -1178 -3z"/>
 </g>
<g id="layer102" fill="#2c2113" stroke="none">
 <path d="M120 1377 c-13 -7 -35 -28 -47 -46 l-23 -34 0 -571 c0 -534 1 -574 18 -605 10 -19 34 -43 53 -53 31 -17 71 -18 597 -18 616 0 604 -1 647 58 19 26 20 43 20 619 l0 593 -33 32 -32 33 -588 3 c-459 2 -592 -1 -612 -11z"/>
 </g>
<g id="layer103" fill="#603c2a" stroke="none">
 <path d="M116 1371 c-15 -10 -37 -32 -47 -47 -18 -27 -19 -53 -19 -401 l0 -373 86 0 85 0 -2 -82 -2 -83 503 0 502 0 0 83 0 82 84 0 84 0 0 374 c0 372 0 373 -23 407 -13 19 -38 39 -57 46 -49 17 -261 17 -259 1 1 -7 1 -82 0 -166 l-1 -153 -81 3 -81 3 -2 78 -1 77 -140 1 c-77 1 -152 0 -167 0 l-28 -1 0 -80 0 -80 -80 0 c-57 0 -80 4 -81 13 -2 17 -6 138 -8 235 l-1 82 -117 0 c-99 0 -123 -3 -147 -19z"/>
 </g>
<g id="layer104" fill="#895c4b" stroke="none">
 <path d="M110 1364 c-60 -51 -60 -48 -60 -449 l0 -366 83 2 82 2 3 -81 3 -82 499 0 500 0 0 80 0 80 85 0 85 0 0 369 c0 366 0 368 -23 402 -37 55 -76 69 -199 69 l-108 0 0 -165 0 -165 -24 -6 c-14 -3 -52 -4 -85 -2 l-61 3 -2 -50 c-1 -27 -2 -65 -1 -82 l0 -33 -162 0 c-187 0 -175 -7 -175 106 0 57 -2 61 -22 61 -13 0 -51 0 -85 1 l-63 2 0 165 0 165 -119 0 c-114 0 -121 -1 -151 -26z"/>
 </g>
<g id="layer105" fill="#b99279" stroke="none">
 <path d="M208 1052 l-158 -2 0 -245 0 -245 85 0 85 0 0 -85 0 -85 500 0 500 0 0 85 0 85 85 0 85 0 0 245 c0 156 -4 245 -10 245 -5 0 -80 1 -165 1 -85 0 -193 -1 -240 -1 l-85 0 0 -79 0 -80 -147 -3 c-210 -4 -193 -12 -193 82 l0 79 -92 3 c-51 2 -164 2 -250 0z"/>
 </g>

</svg>