<?xml version="1.0" encoding="UTF-8" ?>
<!DOCTYPE svg PUBLIC "-//W3C//DTD SVG 1.1//EN" "http://www.w3.org/Graphics/SVG/1.1/DTD/svg11.dtd">
<svg width="200pt" height="200pt" viewBox="0 0 200 200" version="1.1" xmlns="http://www.w3.org/2000/svg">
<g id="#000100ff">
<path fill="#000100" opacity="1.00" d=" M 88.88 8.85 C 100.78 4.54 114.25 4.68 126.10 9.14 C 138.96 13.75 150.70 21.17 161.05 30.04 C 165.85 33.92 167.63 40.12 169.25 45.82 C 172.40 58.24 173.92 71.12 173.44 83.93 C 174.23 87.49 175.81 90.84 176.48 94.44 C 178.69 103.10 178.17 112.11 178.04 120.96 C 177.61 126.63 176.80 132.41 174.84 137.76 C 172.88 141.10 168.26 140.02 166.39 137.16 C 164.75 141.25 162.87 145.52 159.50 148.48 C 157.32 150.08 154.63 148.82 152.86 147.26 C 149.01 153.12 144.15 158.23 139.32 163.28 C 133.66 168.79 127.73 174.38 120.37 177.50 C 112.02 180.58 102.64 180.58 94.24 177.68 C 88.95 175.66 84.54 172.01 80.24 168.43 C 76.89 169.28 73.47 168.19 70.15 168.67 C 57.98 172.47 48.12 181.59 41.12 192.00 C 39.58 195.22 33.65 195.14 32.64 191.53 C 31.04 187.05 31.03 182.18 31.64 177.51 C 29.73 177.48 27.44 177.48 26.27 175.65 C 24.26 172.78 26.36 169.36 27.56 166.61 C 32.53 156.61 43.00 150.88 53.38 147.99 C 52.01 145.19 50.68 142.37 49.41 139.53 C 48.88 141.91 48.57 144.38 47.57 146.63 C 45.78 149.74 40.44 149.22 39.45 145.70 C 35.61 133.46 34.86 120.38 36.43 107.68 C 32.48 108.34 28.40 109.39 24.41 108.58 C 21.55 107.74 21.49 104.41 22.05 102.00 C 23.46 99.98 26.04 99.28 28.01 97.93 C 33.37 94.56 38.30 89.87 40.74 83.96 C 40.30 69.58 42.02 55.03 46.28 41.26 C 47.63 37.35 49.31 33.32 52.53 30.57 C 63.22 21.25 75.46 13.54 88.88 8.85 M 92.84 12.26 C 79.50 16.37 67.41 23.90 56.71 32.76 C 52.24 36.09 50.78 41.77 49.20 46.82 C 48.03 50.12 48.33 53.80 46.76 56.97 C 46.19 65.25 45.09 73.47 44.49 81.73 C 44.75 81.70 45.27 81.65 45.53 81.62 C 45.57 82.64 45.70 83.63 45.92 84.61 C 41.72 93.24 34.56 100.13 26.01 104.40 C 31.67 104.18 37.37 103.17 42.46 100.57 C 38.95 114.84 39.69 130.01 43.62 144.12 C 45.39 137.79 46.51 131.17 49.51 125.26 C 52.18 133.35 54.58 141.65 59.23 148.89 C 59.05 143.53 58.99 138.16 59.56 132.82 C 60.07 133.20 61.10 133.96 61.61 134.35 C 62.99 138.62 64.21 143.01 66.45 146.94 C 65.89 148.01 65.52 149.14 65.33 150.33 C 56.95 151.59 48.38 153.49 41.22 158.24 C 35.86 161.59 31.95 166.87 29.85 172.80 C 32.59 170.02 36.05 168.17 39.75 167.03 C 36.56 174.12 34.33 182.32 36.98 189.94 C 43.71 179.85 52.80 170.97 64.01 166.05 C 66.83 164.93 69.74 163.51 72.86 163.87 C 75.61 164.83 78.52 164.11 81.18 163.24 L 80.18 162.22 C 85.29 166.77 90.52 171.65 97.14 173.86 C 106.08 176.17 116.42 175.85 124.13 170.27 C 132.55 164.45 139.47 156.78 146.02 149.00 C 149.75 144.79 151.01 139.15 152.88 134.00 C 154.22 133.27 155.56 132.55 156.90 131.82 C 157.35 136.14 157.04 140.48 156.97 144.82 C 160.60 140.16 162.96 134.63 164.32 128.91 C 164.78 126.86 165.54 124.90 166.60 123.09 C 168.33 127.00 169.57 131.09 170.97 135.12 C 175.50 118.47 175.07 100.23 168.42 84.19 L 168.04 84.86 C 168.21 84.10 168.55 82.58 168.71 81.82 L 169.50 81.99 C 169.95 74.55 167.93 67.30 167.63 59.89 C 166.62 53.48 165.22 47.13 163.18 40.97 C 161.88 38.37 160.80 35.49 158.45 33.63 C 145.93 22.93 131.27 14.24 115.09 10.59 C 107.67 9.52 99.95 9.74 92.84 12.26 Z" />
</g>
<g id="#ed0000ff">
<path fill="#ed0000" opacity="1.00" d=" M 92.84 12.26 C 99.95 9.74 107.67 9.52 115.09 10.59 C 131.27 14.24 145.93 22.93 158.45 33.63 C 160.80 35.49 161.88 38.37 163.18 40.97 C 165.22 47.13 166.62 53.48 167.63 59.89 C 167.93 67.30 169.95 74.55 169.50 81.99 L 168.71 81.82 C 168.02 81.66 166.64 81.35 165.95 81.19 C 164.32 84.34 163.05 87.83 160.47 90.36 C 158.22 92.52 155.17 90.94 152.70 90.17 C 135.59 83.73 117.05 82.21 98.91 82.80 C 86.42 83.76 73.87 85.48 62.10 89.96 C 59.62 90.57 56.69 92.56 54.30 90.74 C 51.30 88.36 50.04 84.55 48.13 81.35 C 47.48 81.42 46.18 81.56 45.53 81.62 C 45.27 81.65 44.75 81.70 44.49 81.73 C 45.09 73.47 46.19 65.25 46.76 56.97 C 48.33 53.80 48.03 50.12 49.20 46.82 C 50.78 41.77 52.24 36.09 56.71 32.76 C 67.41 23.90 79.50 16.37 92.84 12.26 M 59.52 37.62 C 56.92 39.13 56.39 42.29 55.53 44.92 C 52.59 56.01 51.85 67.53 51.40 78.95 C 84.66 58.31 129.41 58.40 162.73 78.86 C 162.58 71.16 161.88 63.48 160.90 55.85 C 159.79 50.10 159.14 43.99 156.17 38.84 C 150.59 34.34 143.96 31.33 137.43 28.48 C 125.04 23.66 111.46 20.46 98.16 22.64 C 84.38 24.65 71.07 29.85 59.52 37.62 Z" />
</g>
<g id="#ffffffff">
<path fill="#ffffff" opacity="1.00" d=" M 59.52 37.62 C 71.07 29.85 84.38 24.65 98.16 22.64 C 111.46 20.46 125.04 23.66 137.43 28.48 C 143.96 31.33 150.59 34.34 156.17 38.84 C 159.14 43.99 159.79 50.10 160.90 55.85 C 161.88 63.48 162.58 71.16 162.73 78.86 C 129.41 58.40 84.66 58.31 51.40 78.95 C 51.85 67.53 52.59 56.01 55.53 44.92 C 56.39 42.29 56.92 39.13 59.52 37.62 Z" />
</g>
<g id="#f2efeeff">
<path fill="#f2efee" opacity="1.00" d=" M 45.53 81.62 C 46.18 81.56 47.48 81.42 48.13 81.35 C 50.04 84.55 51.30 88.36 54.30 90.74 C 56.69 92.56 59.62 90.57 62.10 89.96 C 73.87 85.48 86.42 83.76 98.91 82.80 C 117.05 82.21 135.59 83.73 152.70 90.17 C 155.17 90.94 158.22 92.52 160.47 90.36 C 163.05 87.83 164.32 84.34 165.95 81.19 C 166.64 81.35 168.02 81.66 168.71 81.82 C 168.55 82.58 168.21 84.10 168.04 84.86 C 166.19 87.97 164.56 91.48 161.54 93.64 C 158.30 95.61 154.39 94.21 151.14 93.00 C 150.84 92.89 150.24 92.69 149.94 92.59 C 145.31 91.09 140.63 89.67 135.85 88.70 C 127.48 87.18 119.02 86.02 110.49 86.20 C 104.49 86.18 98.46 86.05 92.49 86.75 C 88.46 87.32 84.44 88.02 80.40 88.53 C 76.16 88.99 72.02 90.08 68.01 91.50 C 63.36 92.80 58.61 95.59 53.67 94.22 C 49.86 92.29 48.05 88.08 45.92 84.61 C 45.70 83.63 45.57 82.64 45.53 81.62 Z" />
</g>
<g id="#dfc046ff">
<path fill="#dfc046" opacity="1.00" d=" M 168.04 84.86 L 168.42 84.19 C 175.07 100.23 175.50 118.47 170.97 135.12 C 169.57 131.09 168.33 127.00 166.60 123.09 C 165.54 124.90 164.78 126.86 164.32 128.91 C 162.96 134.63 160.60 140.16 156.97 144.82 C 157.04 140.48 157.35 136.14 156.90 131.82 C 156.18 124.88 156.40 117.85 154.89 111.01 C 153.94 104.94 152.05 99.07 151.14 93.00 C 154.39 94.21 158.30 95.61 161.54 93.64 C 164.56 91.48 166.19 87.97 168.04 84.86 Z" />
<path fill="#dfc046" opacity="1.00" d=" M 26.01 104.40 C 34.56 100.13 41.72 93.24 45.92 84.61 C 48.05 88.08 49.86 92.29 53.67 94.22 C 58.61 95.59 63.36 92.80 68.01 91.50 L 67.61 92.69 C 63.72 105.78 60.49 119.16 59.56 132.82 C 58.99 138.16 59.05 143.53 59.23 148.89 C 54.58 141.65 52.18 133.35 49.51 125.26 C 46.51 131.17 45.39 137.79 43.62 144.12 C 39.69 130.01 38.95 114.84 42.46 100.57 C 37.37 103.17 31.67 104.18 26.01 104.40 Z" />
</g>
<g id="#ddc144ff">
<path fill="#ddc144" opacity="1.00" d=" M 92.49 86.75 C 98.46 86.05 104.49 86.18 110.49 86.20 C 111.56 102.68 114.49 118.98 117.94 135.12 C 108.46 126.08 101.54 114.55 96.92 102.35 C 95.96 99.80 95.03 97.24 94.32 94.60 C 93.69 91.99 93.12 89.36 92.49 86.75 Z" />
</g>
<g id="#ffe2b3ff">
<path fill="#ffe2b3" opacity="1.00" d=" M 110.49 86.20 C 119.02 86.02 127.48 87.18 135.85 88.70 C 129.30 90.12 123.80 94.61 117.03 95.34 C 115.15 97.97 113.98 101.00 113.35 104.17 C 125.43 100.01 137.24 94.53 149.94 92.59 C 150.24 92.69 150.84 92.89 151.14 93.00 C 152.05 99.07 153.94 104.94 154.89 111.01 C 156.40 117.85 156.18 124.88 156.90 131.82 C 155.56 132.55 154.22 133.27 152.88 134.00 C 151.01 139.15 149.75 144.79 146.02 149.00 C 139.47 156.78 132.55 164.45 124.13 170.27 C 116.42 175.85 106.08 176.17 97.14 173.86 C 90.52 171.65 85.29 166.77 80.18 162.22 C 75.24 157.46 70.63 152.37 66.45 146.94 C 64.21 143.01 62.99 138.62 61.61 134.35 C 61.10 133.96 60.07 133.20 59.56 132.82 C 60.49 119.16 63.72 105.78 67.61 92.69 C 77.59 95.24 87.31 98.66 96.92 102.35 C 101.54 114.55 108.46 126.08 117.94 135.12 C 114.49 118.98 111.56 102.68 110.49 86.20 Z" />
</g>
<g id="#ffe3b3ff">
<path fill="#ffe3b3" opacity="1.00" d=" M 80.40 88.53 C 84.44 88.02 88.46 87.32 92.49 86.75 C 93.12 89.36 93.69 91.99 94.32 94.60 C 89.59 92.79 85.07 90.48 80.40 88.53 Z" />
</g>
<g id="#766524ff">
<path fill="#766524" opacity="1.00" d=" M 68.01 91.50 C 72.02 90.08 76.16 88.99 80.40 88.53 C 85.07 90.48 89.59 92.79 94.32 94.60 C 95.03 97.24 95.96 99.80 96.92 102.35 C 87.31 98.66 77.59 95.24 67.61 92.69 L 68.01 91.50 Z" />
</g>
<g id="#756527ff">
<path fill="#756527" opacity="1.00" d=" M 117.03 95.34 C 123.80 94.61 129.30 90.12 135.85 88.70 C 140.63 89.67 145.31 91.09 149.94 92.59 C 137.24 94.53 125.43 100.01 113.35 104.17 C 113.98 101.00 115.15 97.97 117.03 95.34 Z" />
</g>
<g id="#00a2edff">
<path fill="#00a2ed" opacity="1.00" d=" M 66.45 146.94 C 70.63 152.37 75.24 157.46 80.18 162.22 L 81.18 163.24 C 78.52 164.11 75.61 164.83 72.86 163.87 C 67.63 161.64 64.60 155.92 65.33 150.33 C 65.52 149.14 65.89 148.01 66.45 146.94 Z" />
</g>
<g id="#d3b542ff">
<path fill="#d3b542" opacity="1.00" d=" M 65.33 150.33 C 64.60 155.92 67.63 161.64 72.86 163.87 C 69.74 163.51 66.83 164.93 64.01 166.05 C 52.80 170.97 43.71 179.85 36.98 189.94 C 34.33 182.32 36.56 174.12 39.75 167.03 C 36.05 168.17 32.59 170.02 29.85 172.80 C 31.95 166.87 35.86 161.59 41.22 158.24 C 48.38 153.49 56.95 151.59 65.33 150.33 Z" />
</g>
</svg>
